<svg xmlns="http://www.w3.org/2000/svg" xmlns:xlink="http://www.w3.org/1999/xlink" xmlns:serif="http://www.serif.com/" width="48" height="48" viewBox="0 0 48 48" version="1.1" xml:space="preserve" style="fill-rule:evenodd;clip-rule:evenodd;stroke-linejoin:round;stroke-miterlimit:2;"><path d="M39.75,42c-4.067,0 -8.108,-1 -12.125,-3c-4.017,-2 -7.625,-4.6 -10.825,-7.8c-3.2,-3.2 -5.8,-6.808 -7.8,-10.825c-2,-4.017 -3,-8.058 -3,-12.125c0,-0.633 0.217,-1.167 0.65,-1.6c0.433,-0.433 0.967,-0.65 1.6,-0.65l7,0c0.467,0 0.875,0.158 1.225,0.475c0.35,0.317 0.575,0.742 0.675,1.275l1.35,6.3c0.067,0.467 0.058,0.892 -0.025,1.275c-0.083,0.383 -0.258,0.708 -0.525,0.975l-5,5.05c1.867,3.1 3.958,5.8 6.275,8.1c2.317,2.3 4.942,4.25 7.875,5.85l4.75,-4.9c0.333,-0.367 0.717,-0.625 1.15,-0.775c0.433,-0.15 0.867,-0.175 1.3,-0.075l5.95,1.3c0.5,0.1 0.917,0.35 1.25,0.75c0.333,0.4 0.5,0.867 0.5,1.4l0,6.75c0,0.633 -0.217,1.167 -0.65,1.6c-0.433,0.433 -0.967,0.65 -1.6,0.65Zm-28.3,-23.4l4.05,-4.1l-1.15,-5.5l-5.35,-0c0,1.3 0.2,2.725 0.6,4.275c0.4,1.55 1.017,3.325 1.85,5.325Zm27.55,20.4l0,-5.35l-5.15,-1.05l-3.95,4.15c1.367,0.633 2.85,1.15 4.45,1.55c1.6,0.4 3.15,0.633 4.65,0.7Zm-9.1,-2.25l0,-0Zm-18.45,-18.15l0,-0Z" style="fill:#064dfa;fill-rule:nonzero;"/></svg>