<svg xmlns="http://www.w3.org/2000/svg" xmlns:xlink="http://www.w3.org/1999/xlink" xmlns:serif="http://www.serif.com/" width="48" height="48" viewBox="0 0 48 48" version="1.1" xml:space="preserve" style="fill-rule:evenodd;clip-rule:evenodd;stroke-linejoin:round;stroke-miterlimit:2;"><path d="M38.4,42l-12.55,-12.55l2.85,-2.85l12.55,12.55l-2.85,2.85Zm-29.05,0l-2.85,-2.85l14.5,-14.5l-5.35,-5.35l-1.15,1.15l-2.2,-2.2l0,4.25l-1.2,1.2l-6.1,-6.1l1.2,-1.2l4.3,0l-2.4,-2.4l6.55,-6.55c0.567,-0.567 1.183,-0.95 1.85,-1.15c0.667,-0.2 1.4,-0.3 2.2,-0.3c0.8,0 1.533,0.142 2.2,0.425c0.667,0.283 1.283,0.708 1.85,1.275l-5.35,5.35l2.4,2.4l-1.2,1.2l5.2,5.2l6.1,-6.1c-0.267,-0.433 -0.475,-0.933 -0.625,-1.5c-0.15,-0.567 -0.225,-1.167 -0.225,-1.8c0,-1.767 0.642,-3.292 1.925,-4.575c1.283,-1.283 2.808,-1.925 4.575,-1.925c0.5,0 0.925,0.05 1.275,0.15c0.35,0.1 0.642,0.233 0.875,0.4l-4.25,4.25l3.75,3.75l4.25,-4.25c0.167,0.267 0.308,0.592 0.425,0.975c0.117,0.383 0.175,0.825 0.175,1.325c0,1.767 -0.642,3.292 -1.925,4.575c-1.283,1.283 -2.808,1.925 -4.575,1.925c-0.6,0 -1.117,-0.042 -1.55,-0.125c-0.433,-0.083 -0.833,-0.208 -1.2,-0.375l-23.45,23.45Z" style="fill:#064dfa;fill-rule:nonzero;"/></svg>