<svg width="800" height="800" viewBox="0 0 800 800" fill="none" xmlns="http://www.w3.org/2000/svg">
<path fill-rule="evenodd" clip-rule="evenodd" d="M133.333 66.6666H666.666C703.485 66.6666 733.333 96.5143 733.333 133.333V666.667C733.333 703.486 703.485 733.333 666.666 733.333H133.333C96.5142 733.333 66.6665 703.486 66.6665 666.667V133.333C66.6665 96.5143 96.5142 66.6666 133.333 66.6666ZM133.333 133.333V666.667H666.666V133.333H133.333ZM381.738 315.072C397.842 305.275 416.075 300 433.333 300H466.666C513.132 300 566.666 338.239 566.666 400V533.333H500V400C500 380.808 480.201 366.667 466.666 366.667H433.333C419.798 366.667 400 380.808 400 400V533.333H333.333V300H366.666L381.738 315.072ZM266.666 266.667C248.257 266.667 233.333 251.743 233.333 233.333C233.333 214.924 248.257 200 266.666 200C285.076 200 300 214.924 300 233.333C300 251.743 285.076 266.667 266.666 266.667ZM300 533.333H233.333V300H300V533.333Z" fill="white"/>
</svg>
