<svg width="40" height="40" viewBox="0 0 40 40" fill="none" xmlns="http://www.w3.org/2000/svg">
<path d="M16.041 10.4214L23.376 1.70013L23.3022 1.68138C22.3122 1.41013 21.176 1.25513 20.0022 1.25513C19.9935 1.25513 19.9847 1.25513 19.9747 1.25513H19.976C16.1572 1.29263 12.7335 2.94638 10.3497 5.56513L10.3397 5.57513L10.3147 5.60263L16.041 10.4214ZM24.156 1.93638L18.161 9.06388L18.2035 9.04763C18.7297 8.86513 19.336 8.76013 19.966 8.76013C22.0285 8.76013 23.8285 9.88763 24.781 11.5614L24.7947 11.5889C25.0697 12.0589 25.2747 12.6076 25.3797 13.1914L25.3847 13.2214C25.4435 13.5239 25.4772 13.8726 25.4772 14.2276C25.4772 14.5451 25.451 14.8564 25.3997 15.1589L25.4047 15.1264L25.3997 15.1514L31.3922 8.02638C29.8147 5.18888 27.2947 3.03638 24.2647 1.96888L24.1735 1.94013L24.156 1.93638ZM9.8335 6.17388L9.8285 6.18013C8.076 8.47888 7.021 11.3914 7.021 14.5514C7.021 16.4739 7.41225 18.3051 8.1185 19.9701L8.08475 19.8789L15.5597 10.9926L15.4697 10.9139L9.8335 6.17388ZM14.6022 13.2914L8.4185 20.6439C9.73975 23.1251 11.2285 25.2664 12.936 27.2114L12.9022 27.1726C13.2885 27.6564 13.6735 28.1439 14.0535 28.6351L21.8385 19.3801L21.7935 19.3951C21.2697 19.5764 20.6647 19.6814 20.0372 19.6814C17.7547 19.6814 15.7947 18.3001 14.9472 16.3276L14.9335 16.2914C14.796 15.9701 14.6822 15.5951 14.6122 15.2051L14.6072 15.1726C14.5547 14.8864 14.5247 14.5564 14.5247 14.2189C14.5247 13.8951 14.5522 13.5776 14.606 13.2689L14.601 13.3014L14.6022 13.2914ZM31.7572 8.75138C32.5135 10.4439 32.9547 12.4189 32.9547 14.4964C32.9547 17.0751 32.276 19.4951 31.0885 21.5889L31.126 21.5176C29.0097 24.8401 26.9022 27.7014 24.6222 30.4126L24.7247 30.2876C23.7647 31.5251 22.896 32.9226 22.1785 34.4076L22.1172 34.5476C21.8972 35.0551 21.706 35.5751 21.5185 36.0976C21.3297 36.6176 21.1685 37.1489 20.9872 37.6726C20.8172 38.1626 20.6185 38.7414 20.0072 38.7451H19.996C19.2685 38.7439 19.091 37.9176 18.9097 37.3601C18.446 35.8351 17.906 34.5289 17.2572 33.2876L17.3185 33.4164C16.4122 31.8239 15.4872 30.4614 14.4697 29.1751L14.5222 29.2451L31.7572 8.75138Z" fill="white"/>
</svg>
