<svg width="1107" height="1107" viewBox="0 0 1107 1107" fill="none" xmlns="http://www.w3.org/2000/svg">
<path d="M443.909 288.396L646.894 47.0483L644.853 46.5295C617.456 39.023 586.012 34.7336 553.531 34.7336C553.289 34.7336 553.046 34.7336 552.77 34.7336H552.804C447.126 35.7714 352.379 81.5364 286.412 154.006L286.136 154.283L285.444 155.044L443.909 288.396ZM668.479 53.5862L502.577 250.829L503.753 250.379C518.316 245.329 535.093 242.423 552.527 242.423C609.604 242.423 659.416 273.625 685.775 319.943L686.156 320.704C693.766 333.711 699.439 348.897 702.345 365.051L702.483 365.881C704.109 374.253 705.043 383.904 705.043 393.728C705.043 402.514 704.316 411.128 702.898 419.499L703.036 418.599L702.898 419.291L868.731 222.118C825.077 143.594 755.339 84.027 671.489 54.4856L668.964 53.69L668.479 53.5862ZM272.126 170.853L271.988 171.026C223.49 234.64 194.294 315.239 194.294 402.687C194.294 455.889 205.122 506.566 224.666 552.643L223.732 550.118L430.591 304.204L428.101 302.025L272.126 170.853ZM404.094 367.819L232.968 571.288C269.532 639.953 310.731 699.208 357.983 753.033L357.049 751.961C367.738 765.348 378.392 778.839 388.908 792.433L604.346 536.315L603.101 536.731C588.607 541.746 571.864 544.652 554.499 544.652C491.335 544.652 437.095 506.428 413.641 451.842L413.261 450.839C409.456 441.949 406.308 431.571 404.371 420.779L404.232 419.879C402.779 411.958 401.949 402.826 401.949 393.486C401.949 384.526 402.71 375.74 404.198 367.196L404.059 368.095L404.094 367.819ZM878.832 242.181C899.76 289.018 911.971 343.673 911.971 401.165C911.971 472.528 893.188 539.498 860.326 597.439L861.363 595.468C802.799 687.413 744.478 766.593 681.382 841.623L684.219 838.164C657.652 872.41 633.611 911.083 613.755 952.179L612.06 956.053C605.972 970.097 600.679 984.487 595.491 998.947C590.267 1013.34 585.805 1028.04 580.789 1042.53C576.085 1056.09 570.584 1072.11 553.669 1072.21H553.358C533.225 1072.18 528.313 1049.31 523.297 1033.88C510.464 991.682 495.52 955.534 477.567 921.184L479.262 924.747C454.183 880.677 428.585 842.972 400.427 807.377L401.88 809.314L878.832 242.181Z" fill="#064DFA"/>
</svg>
