<svg xmlns="http://www.w3.org/2000/svg" xmlns:xlink="http://www.w3.org/1999/xlink" xmlns:serif="http://www.serif.com/" width="48" height="48" viewBox="0 0 48 48" version="1.1" xml:space="preserve" style="fill-rule:evenodd;clip-rule:evenodd;stroke-linejoin:round;stroke-miterlimit:2;"><path d="M24,24.89c-2.901,0 -5.275,-0.945 -7.121,-2.835c-1.846,-1.89 -2.769,-4.242 -2.769,-7.055l-0.659,-0c-0.352,-0 -0.66,-0.132 -0.924,-0.396c-0.263,-0.263 -0.395,-0.571 -0.395,-0.923c-0,-0.351 0.132,-0.659 0.395,-0.923c0.264,-0.263 0.572,-0.395 0.924,-0.395l0.659,-0c-0,-1.759 0.439,-3.341 1.319,-4.748c0.879,-1.406 2.022,-2.549 3.428,-3.428l0,2.571c0,0.264 0.099,0.495 0.297,0.693c0.198,0.197 0.428,0.296 0.692,0.296c0.308,0 0.55,-0.099 0.725,-0.296c0.176,-0.198 0.264,-0.429 0.264,-0.693l0,-3.428c0.352,-0.088 0.835,-0.165 1.451,-0.231c0.615,-0.066 1.209,-0.099 1.78,-0.099c0.571,-0 1.165,0.033 1.78,0.099c0.616,0.066 1.099,0.143 1.451,0.231l-0,3.428c-0,0.264 0.088,0.495 0.263,0.693c0.176,0.197 0.418,0.296 0.726,0.296c0.263,0 0.494,-0.099 0.692,-0.296c0.198,-0.198 0.297,-0.429 0.297,-0.693l-0,-2.571c1.406,0.879 2.527,2.022 3.362,3.428c0.836,1.407 1.253,2.989 1.253,4.748l0.659,-0c0.352,-0 0.66,0.132 0.924,0.395c0.263,0.264 0.395,0.572 0.395,0.923c0,0.352 -0.132,0.66 -0.395,0.923c-0.264,0.264 -0.572,0.396 -0.924,0.396l-0.659,-0c0,2.813 -0.923,5.165 -2.769,7.055c-1.846,1.89 -4.22,2.835 -7.121,2.835Zm-0,-3.956c1.846,0 3.297,-0.549 4.352,-1.648c1.055,-1.099 1.582,-2.528 1.582,-4.286l-11.868,-0c-0,1.758 0.527,3.187 1.582,4.286c1.055,1.099 2.506,1.648 4.352,1.648Zm-20.835,24.066l-0,-6.066c-0,-1.494 0.351,-2.736 1.055,-3.725c0.703,-0.989 1.692,-1.791 2.967,-2.407c2.373,-1.143 4.912,-2.088 7.615,-2.835c2.703,-0.747 5.769,-1.121 9.198,-1.121c3.429,0 6.495,0.374 9.198,1.121c2.703,0.747 5.242,1.692 7.615,2.835c1.275,0.616 2.264,1.418 2.967,2.407c0.704,0.989 1.055,2.231 1.055,3.725l0,6.066l-41.67,0Zm3.956,-3.956l33.758,-0l0,-2.11c0,-0.659 -0.187,-1.198 -0.56,-1.615c-0.374,-0.418 -0.824,-0.737 -1.352,-0.956c-1.89,-0.836 -4,-1.638 -6.33,-2.407c-2.329,-0.769 -5.208,-1.154 -8.637,-1.154c-3.429,0 -6.308,0.385 -8.637,1.154c-2.33,0.769 -4.44,1.571 -6.33,2.407c-0.528,0.219 -0.978,0.538 -1.352,0.956c-0.373,0.417 -0.56,0.956 -0.56,1.615l-0,2.11Zm16.879,-0l-0,-0Z" style="fill:#064dfa;fill-rule:nonzero;"/></svg>